<?xml version="1.0" encoding="utf-8"?>
<!-- Generator: Adobe Illustrator 28.0.0, SVG Export Plug-In . SVG Version: 6.00 Build 0)  -->
<svg version="1.1" xmlns="http://www.w3.org/2000/svg" xmlns:xlink="http://www.w3.org/1999/xlink" x="0px" y="0px"
	 viewBox="0 0 72 72" style="enable-background:new 0 0 72 72;" xml:space="preserve">
<style type="text/css">
	.st0{display:none;fill:#27272A;}
	.st1{fill:#FFCC4D;}
	.st2{fill:#664500;}
	.st3{display:none;}
	.st4{display:inline;}
	.st5{fill:#F4F4F5;}
</style>
<g id="BG">
	<path id="BG_00000013166801612989860350000018289867380783950254_" class="st0" d="M56,72H16C7.16,72,0,64.84,0,56V16
		C0,7.16,7.16,0,16,0h40c8.84,0,16,7.16,16,16v40C72,64.84,64.84,72,56,72z"/>
	<path id="BG_x5F_TOOLS_x5F_EMOJIS" class="st1" d="M56,72H16C7.16,72,0,64.84,0,56V16C0,7.16,7.16,0,16,0h40c8.84,0,16,7.16,16,16
		v40C72,64.84,64.84,72,56,72z"/>
</g>
<g id="OTHER">
	<g id="TOOLS_x5F_EMOJIS">
		<path class="st1" d="M60,36c0,13.25-10.75,24-24,24c-13.25,0-24-10.75-24-24c0-13.25,10.75-24,24-24C49.25,12,60,22.75,60,36"/>
		<ellipse class="st2" cx="27.33" cy="34" rx="3.33" ry="4.67"/>
		<path class="st2" d="M49.94,35.73c-0.08-0.18-2-4.4-5.94-4.4c-3.94,0-5.86,4.22-5.94,4.4c-0.12,0.28-0.04,0.6,0.19,0.79
			c0.23,0.19,0.57,0.2,0.81,0.02c0.02-0.01,1.68-1.2,4.94-1.2c3.23,0,4.9,1.17,4.94,1.2c0.12,0.09,0.26,0.13,0.4,0.13
			c0.15,0,0.29-0.05,0.42-0.15C49.99,36.33,50.07,36.01,49.94,35.73z M20,28.61c-0.28,0-0.56-0.09-0.8-0.27
			c-0.59-0.44-0.71-1.28-0.27-1.87c4.35-5.8,10.15-5.87,10.4-5.87c0.74,0,1.33,0.6,1.33,1.33c0,0.73-0.59,1.33-1.33,1.33
			c-0.21,0-4.76,0.11-8.27,4.8C20.81,28.43,20.4,28.61,20,28.61z M50.67,31.44c-0.41,0-0.81-0.18-1.07-0.53
			c-3.46-4.61-9.28-3.5-9.34-3.49c-0.73,0.14-1.42-0.32-1.57-1.05c-0.14-0.72,0.32-1.42,1.05-1.57c0.31-0.06,7.54-1.43,11.99,4.51
			c0.44,0.59,0.32,1.43-0.27,1.87C51.23,31.36,50.95,31.44,50.67,31.44z M43.01,43.44c-0.25-0.15-0.58-0.12-0.8,0.08
			c-0.01,0.01-1.35,1.15-6.21,1.15c-4.85,0-6.19-1.14-6.19-1.14c-0.21-0.21-0.54-0.25-0.8-0.11c-0.26,0.15-0.39,0.45-0.32,0.74
			C28.7,44.22,30.21,50,36,50s7.3-5.78,7.31-5.84C43.38,43.88,43.25,43.59,43.01,43.44z"/>
	</g>
</g>
<g id="MAIN" class="st3">
	<g id="R" class="st4">
		<path class="st5" d="M21.17,48.78V23.22h11.2c1.87,0,3.5,0.31,4.88,0.94c1.38,0.62,2.44,1.51,3.19,2.65
			c0.74,1.14,1.12,2.49,1.12,4.05c0,1.18-0.25,2.22-0.74,3.13s-1.16,1.66-2.02,2.23c-0.85,0.58-1.83,0.94-2.94,1.08l-0.11-0.32
			c1.7,0,3,0.37,3.89,1.1s1.39,1.85,1.51,3.37l0.65,7.34h-5.58l-0.47-6.48c-0.07-0.98-0.38-1.71-0.92-2.18
			c-0.54-0.47-1.46-0.7-2.75-0.7h-5.44v9.36H21.17z M26.64,34.85h5.11c1.32,0,2.35-0.31,3.08-0.92c0.73-0.61,1.1-1.48,1.1-2.61
			c0-1.15-0.37-2.02-1.12-2.61c-0.74-0.59-1.82-0.88-3.24-0.88h-4.93V34.85z"/>
		<path class="st5" d="M45,48.78v-5.51h5.83v5.51H45z"/>
	</g>
</g>
<g id="REF" class="st3">
</g>
</svg>
