<?xml version="1.0" encoding="utf-8"?>
<!-- Generator: Adobe Illustrator 28.0.0, SVG Export Plug-In . SVG Version: 6.00 Build 0)  -->
<svg version="1.1" xmlns="http://www.w3.org/2000/svg" xmlns:xlink="http://www.w3.org/1999/xlink" x="0px" y="0px"
	 viewBox="0 0 96 96" style="enable-background:new 0 0 96 96;" xml:space="preserve">
<style type="text/css">
	.st0{fill:#FFCC4D;}
	.st1{fill:#664500;}
</style>
<g id="EMOJIS">
	<path id="BG" class="st0" d="M72,96H24C10.75,96,0,85.25,0,72V24C0,10.75,10.75,0,24,0h48c13.25,0,24,10.75,24,24v48
		C96,85.25,85.25,96,72,96z"/>
	<g id="_x31_F609">
		<path id="FACE_x5F_BG" class="st0" d="M80,48c0,17.67-14.33,32-32,32c-17.67,0-32-14.33-32-32c0-17.67,14.33-32,32-32
			C65.67,16,80,30.33,80,48"/>
		<path id="FACE" class="st1" d="M36.44,39.11c2.45,0,4.44,2.79,4.44,6.22c0,3.44-1.99,6.22-4.44,6.22c-2.45,0-4.44-2.79-4.44-6.22
			C32,41.9,33.99,39.11,36.44,39.11z M66.33,48.7c-0.16,0.13-0.36,0.19-0.55,0.19c-0.18,0-0.37-0.06-0.53-0.18
			c-0.05-0.04-2.27-1.6-6.58-1.6c-4.34,0-6.56,1.59-6.58,1.6c-0.33,0.24-0.77,0.23-1.08-0.02c-0.31-0.25-0.42-0.68-0.26-1.05
			c0.11-0.24,2.67-5.86,7.92-5.86c5.26,0,7.82,5.62,7.92,5.86C66.76,48.01,66.65,48.44,66.33,48.7z M28.09,37.44
			c4.69-6.25,10.75-6.4,11.03-6.4c0.98,0,1.77-0.8,1.77-1.78c0-0.98-0.8-1.78-1.78-1.78c-0.33,0-8.07,0.09-13.87,7.82
			c-0.59,0.79-0.43,1.9,0.36,2.49c0.32,0.24,0.7,0.36,1.06,0.36C27.21,38.15,27.74,37.9,28.09,37.44z M68.62,41.57
			c0.79-0.59,0.95-1.7,0.36-2.49c-5.94-7.91-15.58-6.09-15.99-6.01c-0.96,0.19-1.59,1.13-1.39,2.09c0.19,0.96,1.12,1.59,2.09,1.39
			c0.08-0.01,7.84-1.49,12.45,4.66c0.35,0.47,0.88,0.71,1.42,0.71C67.93,41.93,68.3,41.81,68.62,41.57z M57.75,58.88
			c-0.02,0.08-2.04,7.78-9.75,7.78s-9.73-7.71-9.75-7.78c-0.1-0.39,0.08-0.79,0.42-0.99c0.35-0.19,0.78-0.14,1.07,0.15
			c0,0,1.79,1.52,8.26,1.52c6.48,0,8.26-1.52,8.28-1.53c0.29-0.26,0.73-0.3,1.06-0.11C57.67,58.12,57.85,58.5,57.75,58.88z"/>
	</g>
</g>
<g id="REF">
</g>
</svg>
