<svg xmlns="http://www.w3.org/2000/svg" viewBox="0 0 96 96">
	<style type="text/css">
		.st1{fill:#F4F4F5;}
	</style>
	<g>
		<path style="fill:#27272A;" d="M72,96H24C10.75,96,0,85.25,0,72V24 C0,10.75,10.75,0,24,0h48c13.25,0,24,10.75,24,24v48C96,85.25,85.25,96,72,96z"/>
		<g>
			<path class="st1" d="M28,65.23V30.77h15.1c2.52,0,4.72,0.42,6.58,1.26c1.86,0.84,3.29,2.03,4.3,3.57c1,1.54,1.51,3.36,1.51,5.46
				c0,1.59-0.33,2.99-1,4.22c-0.66,1.23-1.57,2.23-2.72,3.01c-1.15,0.78-2.47,1.26-3.96,1.46l-0.14-0.44c2.3,0,4.05,0.49,5.24,1.48
				c1.2,0.99,1.88,2.5,2.04,4.54l0.87,9.9h-7.52l-0.63-8.74c-0.1-1.33-0.51-2.31-1.24-2.94c-0.73-0.63-1.97-0.95-3.71-0.95h-7.33
				v12.62H28z M35.38,46.45h6.89c1.78,0,3.16-0.41,4.15-1.24c0.99-0.82,1.48-2,1.48-3.52c0-1.55-0.5-2.73-1.51-3.52
				c-1-0.79-2.46-1.19-4.37-1.19h-6.65V46.45z"/>
			<path class="st1" d="M60.14,65.23v-7.43H68v7.43H60.14z"/>
		</g>
	</g>
</svg>