<?xml version="1.0" encoding="utf-8"?>
<!-- Generator: Adobe Illustrator 28.0.0, SVG Export Plug-In . SVG Version: 6.00 Build 0)  -->
<svg version="1.1" xmlns="http://www.w3.org/2000/svg" xmlns:xlink="http://www.w3.org/1999/xlink" x="0px" y="0px"
	 viewBox="0 0 72 72" style="enable-background:new 0 0 72 72;" xml:space="preserve">
<style type="text/css">
	.st0{fill:#27272A;}
	.st1{fill:#F4F4F5;}
</style>
<g id="BG">
	<path id="BG_00000013166801612989860350000018289867380783950254_" class="st0" d="M56,72H16C7.16,72,0,64.84,0,56V16
		C0,7.16,7.16,0,16,0h40c8.84,0,16,7.16,16,16v40C72,64.84,64.84,72,56,72z"/>
</g>
<g id="OTHER">
</g>
<g id="MAIN">
	<g id="R">
		<path class="st1" d="M21.17,48.78V23.22h11.2c1.87,0,3.5,0.31,4.88,0.94c1.38,0.62,2.44,1.51,3.19,2.65
			c0.74,1.14,1.12,2.49,1.12,4.05c0,1.18-0.25,2.22-0.74,3.13s-1.16,1.66-2.02,2.23c-0.85,0.58-1.83,0.94-2.94,1.08l-0.11-0.32
			c1.7,0,3,0.37,3.89,1.1s1.39,1.85,1.51,3.37l0.65,7.34h-5.58l-0.47-6.48c-0.07-0.98-0.38-1.71-0.92-2.18
			c-0.54-0.47-1.46-0.7-2.75-0.7h-5.44v9.36H21.17z M26.64,34.85h5.11c1.32,0,2.35-0.31,3.08-0.92c0.73-0.61,1.1-1.48,1.1-2.61
			c0-1.15-0.37-2.02-1.12-2.61c-0.74-0.59-1.82-0.88-3.24-0.88h-4.93V34.85z"/>
		<path class="st1" d="M45,48.78v-5.51h5.83v5.51H45z"/>
	</g>
</g>
<g id="REF">
</g>
</svg>
