<svg xmlns="http://www.w3.org/2000/svg" viewBox="0 0 96 96">
	<path style="fill:#FFCC4D;" d="M96,48c0,26.51-21.49,48-48,48C21.49,96,0,74.51,0,48C0,21.49,21.49,0,48,0
		C74.51,0,96,21.49,96,48"/>
	<path style="fill:#664500;" d="M30.67,34.67c3.68,0,6.67,4.18,6.67,9.33s-2.98,9.33-6.67,9.33S24,49.15,24,44
		S26.98,34.67,30.67,34.67z M75.5,49.04c-0.24,0.19-0.54,0.29-0.83,0.29c-0.28,0-0.56-0.09-0.79-0.26c-0.07-0.05-3.4-2.4-9.87-2.4
		c-6.51,0-9.84,2.38-9.87,2.41c-0.49,0.35-1.16,0.34-1.63-0.04c-0.47-0.38-0.63-1.02-0.39-1.58c0.16-0.36,4-8.79,11.89-8.79
		c7.89,0,11.73,8.43,11.89,8.79C76.13,48.01,75.97,48.66,75.5,49.04z M18.13,32.15c7.03-9.37,16.13-9.59,16.55-9.6
		c1.47-0.01,2.66-1.2,2.66-2.67c0-1.47-1.19-2.67-2.67-2.67c-0.49,0-12.1,0.13-20.8,11.73c-0.88,1.18-0.65,2.85,0.53,3.73
		c0.48,0.36,1.04,0.53,1.6,0.53C16.81,33.22,17.61,32.85,18.13,32.15z M78.93,38.35c1.18-0.88,1.42-2.55,0.53-3.73
		c-8.9-11.87-23.37-9.14-23.99-9.01c-1.44,0.29-2.38,1.69-2.09,3.14c0.29,1.44,1.68,2.38,3.14,2.09
		c0.11-0.02,11.77-2.23,18.68,6.99c0.53,0.7,1.32,1.07,2.14,1.07C77.89,38.89,78.45,38.72,78.93,38.35z M62.63,64.32
		C62.6,64.44,59.57,76,48,76S33.4,64.44,33.38,64.32c-0.15-0.58,0.11-1.19,0.63-1.49c0.52-0.29,1.18-0.21,1.6,0.22
		c0,0,2.68,2.28,12.39,2.28c9.72,0,12.39-2.28,12.42-2.3c0.44-0.39,1.09-0.45,1.59-0.16C62.51,63.17,62.77,63.75,62.63,64.32z"/>
</svg>